# xmcd
#
# Track frame offsets: 
#        150
#        12772
#        27675
#        32702
#        44100
#        62740
#        70705
#        83590
#        90560
#        107535
#        120717
#        137302
#        150060
#
# Disc length: 2179 seconds
#
# Revision: 5
# Processed by: cddbd v1.5.2PL0 Copyright (c) Steve Scherf et al.
# Submitted via: ExactAudioCopy v0.99pb4
#
DISCID=9808810d
DTITLE=Emmylou Harris - The Ballad of Sally Rose
DYEAR=1985
DGENRE=Country
TTITLE0=The Ballad of Sally Rose
TTITLE1=Rhythm Guitar
TTITLE2=I Think I Love Him
TTITLE3=Heart to Heart
TTITLE4=Woman Walk the Line
TTITLE5=Bad News
TTITLE6=Timberline
TTITLE7=Long Tall Sally Rose
TTITLE8=White Line
TTITLE9=Diamond in My Crown
TTITLE10=The Sweetheart of the Rodeo
TTITLE11=K-S-O-S
TTITLE12=Sweet Chariot
EXTD=Warner Bros\n7599-25205-2\nProduced by Emmylou Harris and Paul Kenn
EXTD=erley\nBackground vocals by Dolly Parton, Linda Ronstadt, Gail Da
EXTD=vies, Vince Gill and Barbara Cowart
EXTT0=
EXTT1=
EXTT2=
EXTT3=
EXTT4=
EXTT5=
EXTT6=
EXTT7=
EXTT8=
EXTT9=
EXTT10=
EXTT11=
EXTT12=
PLAYORDER=
